
<svg version="1.1" id="Layer_1" xmlns="http://www.w3.org/2000/svg" xmlns:xlink="http://www.w3.org/1999/xlink" viewBox="0 0 200 137.29" enable-background="new 0 0 439 137.29" xml:space="preserve" height="70" width="70">
<g>
	<g>
		<path fill="#01579B" d="M29.64,108.94L6.36,85.66c-2.76-2.84-4.48-6.84-4.48-10.75c0-1.81,1.02-4.64,1.79-6.27l21.49-44.77
			L29.64,108.94z"/>
		<path fill="#40C4FF" d="M109.34,28.35L86.06,5.07c-2.03-2.04-6.27-4.48-9.85-4.48c-3.08,0-6.1,0.62-8.06,1.79L25.17,23.87
			L109.34,28.35z"/>
		<polygon fill="#40C4FF" points="57.4,136.7 113.82,136.7 113.82,112.52 71.73,99.09 33.23,112.52 		"/>
		<path fill="#29B6F6" d="M25.17,96.41c0,7.18,0.9,8.95,4.48,12.54l3.58,3.58h80.59l-39.4-44.77L25.17,23.88V96.41z"/>
		<path fill="#01579B" d="M96.8,23.87H25.16l88.65,88.65h24.18V57l-28.65-28.65C105.32,24.31,101.74,23.87,96.8,23.87z"/>
		<path opacity="0.2" fill="#FFFFFF" enable-background="new    " d="M30.54,109.84c-3.58-3.6-4.48-7.14-4.48-13.43V24.77l-0.9-0.9
			V96.4C25.17,102.7,25.17,104.44,30.54,109.84l2.69,2.69l0,0L30.54,109.84z"/>
		<polygon opacity="0.2" fill="#263238" enable-background="new    " points="137.1,56.11 137.1,111.63 112.92,111.63
			113.82,112.52 138,112.52 138,57.01 		"/>
		<path opacity="0.2" fill="#FFFFFF" enable-background="new    " d="M109.34,28.35c-4.44-4.44-8.08-4.48-13.43-4.48H25.17l0.9,0.9
			h69.85C98.58,24.77,105.33,24.32,109.34,28.35L109.34,28.35z"/>

			<radialGradient id="SVGID_1_" cx="69.955" cy="60.8864" r="68.065" gradientTransform="matrix(1 0 0 -1 0 129.5328)" gradientUnits="userSpaceOnUse">
			<stop  offset="0" style="stop-color:#FFFFFF;stop-opacity:0.1"/>
			<stop  offset="1" style="stop-color:#FFFFFF;stop-opacity:0"/>
		</radialGradient>
	</g>
</g>
</svg>
